# xmcd CD database file
#
# Track frame offsets:
#	150
#	11625
#	26467
#	39962
#	50537
#	62975
#	79437
#	89950
#	100505
#	120937
#	134412
#	143492
#	153400
#	162300
#	171757
#	182915
#	192430
#
# Disc length: 2689 seconds
#
# Revision: 2
# Processed by: cddbd v1.5.1PL2 Copyright (c) Steve Scherf et al.
# Submitted via: CDex 1.51
#
DISCID=e30a7f11
DTITLE=Loretta Lynn - Coal miner's daughter
DYEAR=1994
DGENRE=Country
TTITLE0=Hey Loretta
TTITLE1=Coal miner's daughter
TTITLE2=Let your love flow
TTITLE3=You're looking at country
TTITLE4=Me and Bobby McGee
TTITLE5=One's on the way - The pill
TTITLE6=Out of my head and back in my bed
TTITLE7=Somebody somewhere
TTITLE8=I fall to pieces - Walking after midnight - Crazy
TTITLE9=Back in baby's arms - She's got you
TTITLE10=They don't make Em like my daddy
TTITLE11=You ain't woman enough
TTITLE12=We've come a long way baby
TTITLE13=Your squaw is on the warpath
TTITLE14=Spring fever
TTITLE15=First city
TTITLE16=Y'all come
EXTD=YEAR: 1994
EXTT0=
EXTT1=
EXTT2=
EXTT3=
EXTT4=
EXTT5=
EXTT6=
EXTT7=
EXTT8=
EXTT9=
EXTT10=
EXTT11=
EXTT12=
EXTT13=
EXTT14=
EXTT15=
EXTT16=
PLAYORDER=
